#!OML:ASF X:\für Bonn\!DataBase\2005_08_11_Bastian_Final\c3d\Bastian.ASF
:FULLY-SPECIFIED
:DEGREES
125
root 0.126816 10.5991 7.01337 170.851 -5.87034 -178.98
lowerback 33.7229 -0.883655 2.50017
upperback 8.03513 -2.81042 -1.03931
thorax -8.43801 -2.34036 -1.24663
lowerneck -22.0095 -5.19656 -1.83953
upperneck -9.0375 -8.81897 11.2389
head 1.28291 -5.09052 3.07778
rclavicle -1.51076e-014 -3.97569e-015
rhumerus 66.3734 4.90704 -1.1611
rradius 40.1428
rwrist -46.0248
rhand -44.0108 -4.28732
rfingers 7.12502
rthumb -16.8316 -33.5778
lclavicle -1.51076e-014 -3.97569e-015
lhumerus 65.6834 -8.11375 -11.8819
lradius 33.5977
lwrist 4.58938
lhand -45.1038 14.097
lfingers 7.12502
lthumb -17.8835 43.2948
rfemur -53.3533 -22.3751 24.726
rtibia 126.337
rfoot -43.5834 0.685278
rtoes 5.63602
lfemur -54.8183 10.3161 -16.5615
ltibia 125.435
lfoot -41.0886 -14.9209
ltoes -10.4629
126
root 0.131334 10.8411 7.00724 171.138 -6.03335 -179.037
lowerback 33.0894 -0.946756 2.44299
upperback 8.05902 -2.87306 -1.0004
thorax -8.17078 -2.35079 -1.17901
lowerneck -21.7296 -5.20598 -2.06502
upperneck -9.07576 -8.74845 11.3925
head 1.2487 -5.0443 3.17308
rclavicle -2.70347e-014 5.1684e-015
rhumerus 66.7197 5.12526 -1.78601
rradius 39.7804
rwrist -45.3104
rhand -43.8368 -4.13852
rfingers 7.12502
rthumb -16.6641 -33.4432
lclavicle -2.70347e-014 5.1684e-015
lhumerus 65.7946 -8.30281 -11.7001
lradius 33.4513
lwrist 4.2085
lhand -44.85 14.115
lfingers 7.12502
lthumb -17.6393 43.3348
rfemur -52.4252 -21.2861 24.7965
rtibia 124.106
rfoot -43.1043 -0.127803
rtoes 4.63335
lfemur -53.7743 9.42609 -16.7353
ltibia 123.109
lfoot -40.4989 -14.9005
ltoes -9.35076
127
root 0.135239 11.0834 7.00031 171.456 -6.1949 -179.117
lowerback 32.1625 -0.987757 2.33477
upperback 8.45844 -2.92487 -0.89433
thorax -8.06975 -2.35868 -1.12656
lowerneck -21.4177 -5.22899 -2.28423
upperneck -9.09116 -8.68961 11.4854
head 1.21322 -5.00131 3.24833
rclavicle 2.22639e-014 -1.03368e-014
rhumerus 67.0561 5.40732 -2.28075
rradius 39.4491
rwrist -44.7397
rhand -43.7329 -3.95076
rfingers 7.12502
rthumb -16.5641 -33.2638
lclavicle 2.22639e-014 -1.03368e-014
lhumerus 65.9134 -8.53451 -11.5434
lradius 33.33
lwrist 4.02612
lhand -44.6141 14.063
lfingers 7.12502
lthumb -17.4122 43.3032
rfemur -51.498 -20.2901 24.8159
rtibia 121.831
rfoot -42.6287 -0.788695
rtoes 3.84254
lfemur -52.7567 8.62132 -16.9386
ltibia 120.748
lfoot -39.892 -14.8341
ltoes -8.3441
128
root 0.138205 11.323 6.99242 171.809 -6.35369 -179.228
lowerback 31.5517 -1.0446 2.20921
upperback 8.39057 -2.98163 -0.861923
thorax -7.86232 -2.35914 -1.01954
lowerneck -21.1612 -5.24754 -2.46119
upperneck -9.03133 -8.63564 11.548
head 1.20453 -4.95566 3.30422
rclavicle -1.49089e-014 -8.34896e-015
rhumerus 67.388 5.71621 -2.52975
rradius 39.2174
rwrist -44.5643
rhand -43.7503 -3.69756
rfingers 7.12502
rthumb -16.5808 -33.0092
lclavicle -1.49089e-014 -8.34896e-015
lhumerus 66.0219 -8.76537 -11.353
lradius 33.1972
lwrist 3.8624
lhand -44.384 13.9961
lfingers 7.12502
lthumb -17.1908 43.2557
rfemur -50.5909 -19.3836 24.7671
rtibia 119.541
rfoot -42.1824 -1.23496
rtoes 3.4475
lfemur -51.7697 7.87957 -17.1776
ltibia 118.378
lfoot -39.2963 -14.7363
ltoes -7.38327
129
root 0.141433 11.5603 6.98319 172.15 -6.506 -179.311
lowerback 30.9517 -1.1006 2.1002
upperback 8.31779 -3.0308 -0.823689
thorax -7.66279 -2.35668 -0.918972
lowerneck -20.93 -5.25874 -2.57523
upperneck -8.94329 -8.58595 11.5393
head 1.20074 -4.91252 3.32707
rclavicle 9.93923e-015 -6.36111e-015
rhumerus 67.6862 6.05379 -2.57596
rradius 39.0541
rwrist -44.5906
rhand -43.8258 -3.51022
rfingers 7.12502
rthumb -16.6535 -32.8158
lclavicle 9.93923e-015 -6.36111e-015
lhumerus 66.1296 -8.99632 -10.9973
lradius 33.0421
lwrist 3.60157
lhand -44.197 13.8644
lfingers 7.12502
lthumb -17.0108 43.1396
rfemur -49.6538 -18.5466 24.7294
rtibia 117.226
rfoot -41.7252 -1.6341
rtoes 3.25009
lfemur -50.7519 7.26161 -17.3689
ltibia 115.987
lfoot -38.7445 -14.6528
ltoes -6.61149
130
root 0.144584 11.7958 6.97308 172.459 -6.66159 -179.416
lowerback 30.3759 -1.15403 1.96232
upperback 8.24042 -3.08648 -0.795915
thorax -7.47731 -2.35798 -0.811032
lowerneck -20.6728 -5.26367 -2.6364
upperneck -8.8506 -8.53729 11.4872
head 1.1898 -4.87157 3.32893
rclavicle -2.46493e-014 -6.75868e-015
rhumerus 67.9666 6.43291 -2.49644
rradius 38.96
rwrist -44.8654
rhand -43.9718 -3.22946
rfingers 7.12502
rthumb -16.794 -32.5232
lclavicle -2.46493e-014 -6.75868e-015
lhumerus 66.217 -9.25109 -10.5314
lradius 32.8908
lwrist 3.2419
lhand -44.0225 13.7451
lfingers 7.12502
lthumb -16.8428 43.0346
rfemur -48.6591 -17.8058 24.6378
rtibia 114.893
rfoot -41.2974 -1.93094
rtoes 3.16642
lfemur -49.6838 6.67746 -17.5741
ltibia 113.574
lfoot -38.2244 -14.5281
ltoes -5.88739
